<svg width="50" height="50" viewBox="0 0 50 50" fill="none" xmlns="http://www.w3.org/2000/svg">
<path d="M37.6459 17.7291L19.8126 8.81248C7.83339 2.81248 2.91673 7.72914 8.91673 19.7083L10.7292 23.3333C11.2501 24.3958 11.2501 25.625 10.7292 26.6875L8.91673 30.2916C2.91673 42.2708 7.81256 47.1875 19.8126 41.1875L37.6459 32.2708C45.6459 28.2708 45.6459 21.7291 37.6459 17.7291ZM30.9167 26.5625H19.6667C18.8126 26.5625 18.1042 25.8541 18.1042 25C18.1042 24.1458 18.8126 23.4375 19.6667 23.4375H30.9167C31.7709 23.4375 32.4792 24.1458 32.4792 25C32.4792 25.8541 31.7709 26.5625 30.9167 26.5625Z" fill="#3369FF"/>
</svg>
